# 3ds Max Wavefront OBJ Exporter v0.97b - (c)2007 guruware
# File Created: 18.09.2015 00:26:29

mtllib Large Stagmite.mtl

#
# object Large_Stalagmite
#

v  -134.3924 -2.6671 -34.8381
v  -119.6180 -2.6671 -26.2456
v  -118.3241 10.1884 -29.8005
v  -127.3868 15.8029 -38.1049
v  -104.4449 -2.6671 -26.9081
v  -106.0437 18.6010 -30.3367
v  -92.3576 -2.6671 -34.1880
v  -98.5715 23.1928 -39.7022
v  -94.8468 -2.6671 -53.2785
v  -98.1096 23.6358 -51.7571
v  -105.4616 -1.6224 -65.7193
v  -106.2836 20.1618 -61.0315
v  -119.6897 -1.5203 -61.9906
v  -119.8055 23.4702 -57.4590
v  -133.0637 -2.6671 -55.0802
v  -127.9230 19.6430 -50.3853
v  -115.2190 39.5588 -34.1999
v  -123.9582 34.2730 -39.7037
v  -108.1755 37.3166 -34.9084
v  -100.4619 32.2468 -40.3903
v  -101.8699 38.3116 -50.0036
v  -108.8134 47.3959 -54.6601
v  -117.7324 38.1840 -55.4032
v  -124.3681 37.9421 -49.0914
v  -113.9251 72.6736 -37.7548
v  -120.5296 75.2866 -41.3025
v  -109.3282 68.9914 -37.3804
v  -104.8490 52.4536 -41.9871
v  -105.1326 46.3502 -48.4822
v  -109.8081 59.4237 -53.1979
v  -116.7083 70.3735 -53.2070
v  -120.8132 66.5334 -47.7976
v  -113.4716 92.8915 -42.3245
v  -114.9661 92.9747 -43.8968
v  -111.3163 91.3120 -42.0238
v  -110.0721 88.9575 -43.7272
v  -110.5229 88.7026 -46.3265
v  -112.4013 89.9065 -48.2621
v  -114.8222 91.3120 -48.6656
v  -115.9005 92.3532 -47.1369
# 40 vertices

vn -0.8259 0.3732 0.4226
vn -0.2631 0.2475 0.9325
vn -0.3400 0.2676 0.9016
vn -0.8444 0.2650 0.4655
vn 0.3188 0.2217 0.9215
vn 0.3504 0.2233 0.9096
vn 0.8475 0.2692 0.4574
vn 0.8934 0.2384 0.3809
vn 0.9045 0.1470 -0.4004
vn 0.9061 0.2194 -0.3617
vn 0.3106 0.2021 -0.9288
vn 0.3021 0.2080 -0.9303
vn -0.3910 0.2081 -0.8965
vn -0.4807 0.1746 -0.8593
vn -0.8106 0.3301 -0.4837
vn -0.9163 0.2105 -0.3406
vn -0.2408 0.1282 0.9621
vn -0.8563 0.1653 0.4892
vn 0.4140 0.1733 0.8936
vn 0.8964 0.2446 0.3695
vn 0.9138 0.3069 -0.2661
vn 0.3674 0.1533 -0.9173
vn -0.4246 0.1704 -0.8892
vn -0.9246 0.1566 -0.3473
vn -0.1935 0.1600 0.9680
vn -0.8791 0.2389 0.4125
vn 0.5544 0.1604 0.8167
vn 0.9692 0.1370 0.2046
vn 0.9584 0.2757 -0.0742
vn 0.5979 0.1673 -0.7839
vn -0.3566 0.1829 -0.9162
vn -0.9219 0.1314 -0.3645
vn -0.4215 0.2836 0.8614
vn -0.8580 0.2691 0.4376
vn 0.2988 0.2302 0.9261
vn 0.9686 0.1587 0.1915
vn 0.8822 0.1342 -0.4513
vn 0.4655 0.1672 -0.8691
vn -0.4361 0.2261 -0.8710
vn -0.9733 0.2048 -0.1036
vn 0.5757 0.7133 -0.3997
vn 0.5544 0.6599 -0.5072
vn 0.6061 0.7377 -0.2975
vn 0.5545 0.7949 -0.2464
vn 0.6587 0.7291 -0.1857
vn 0.5590 0.8184 -0.1335
vn 0.5167 0.8320 -0.2022
vn 0.3338 0.9033 -0.2695
# 48 vertex normals

vt 0.7823 0.0700 1.0001
vt 0.8956 0.1478 1.0001
vt 0.8308 0.2346 0.8094
vt 0.7121 0.2206 0.8094
vt 0.9908 0.2268 1.0001
vt 0.8716 0.3522 0.8094
vt 0.0123 0.1357 1.0001
vt 0.1049 0.0759 1.0001
vt 0.2084 0.2751 0.8094
vt 0.1115 0.2814 0.8094
vt 0.2523 0.0379 1.0001
vt 0.2980 0.2507 0.8094
vt 0.3824 0.0232 1.0001
vt 0.3889 0.2065 0.8094
vt 0.5012 0.0288 1.0001
vt 0.5024 0.2384 0.8094
vt 0.6242 0.0250 1.0001
vt 0.5987 0.2177 0.8094
vt 0.7100 0.4439 0.6188
vt 0.6503 0.3641 0.6188
vt 0.7704 0.4653 0.6188
vt 0.2368 0.3492 0.6188
vt 0.1956 0.4148 0.6188
vt 0.3221 0.3735 0.6188
vt 0.3993 0.4382 0.6188
vt 0.4805 0.3622 0.6188
vt 0.5624 0.3690 0.6188
vt 0.5814 0.6809 0.4281
vt 0.5327 0.6786 0.4281
vt 0.6253 0.6740 0.4281
vt 0.2884 0.5125 0.4281
vt 0.2770 0.6568 0.4281
vt 0.3253 0.4486 0.4281
vt 0.4015 0.5401 0.4281
vt 0.4595 0.6255 0.4281
vt 0.5114 0.5996 0.4281
vt 0.5057 0.8307 0.2374
vt 0.4867 0.8236 0.2374
vt 0.5202 0.8250 0.2374
vt 0.3654 0.8034 0.2374
vt 0.3108 0.8305 0.2374
vt 0.4056 0.7885 0.2374
vt 0.4306 0.7913 0.2374
vt 0.4501 0.8000 0.2374
vt 0.4611 0.8094 0.2374
vt 0.4423 0.8943 0.2500
vt 0.4275 0.9106 0.2500
vt 0.4015 0.9117 0.2500
vt 0.4243 0.8536 0.2500
vt 0.3888 0.8941 0.2500
vt 0.3921 0.8702 0.2500
vt 0.4069 0.8524 0.2500
vt 0.4405 0.8766 0.2500
# 53 texture coords

g Large_Stalagmite
usemtl wire_086086086
s 8
f 1/1/1 2/2/2 3/3/3 4/4/4 
f 2/2/2 5/5/5 6/6/6 3/3/3 
f 5/7/5 7/8/7 8/9/8 6/10/6 
f 7/8/7 9/11/9 10/12/10 8/9/8 
f 9/11/9 11/13/11 12/14/12 10/12/10 
f 11/13/11 13/15/13 14/16/14 12/14/12 
f 13/15/13 15/17/15 16/18/16 14/16/14 
f 15/17/15 1/1/1 4/4/4 16/18/16 
f 4/4/4 3/3/3 17/19/17 18/20/18 
f 3/3/3 6/6/6 19/21/19 17/19/17 
f 6/10/6 8/9/8 20/22/20 19/23/19 
f 8/9/8 10/12/10 21/24/21 20/22/20 
f 10/12/10 12/14/12 22/25/22 21/24/21 
f 12/14/12 14/16/14 23/26/23 22/25/22 
f 14/16/14 16/18/16 24/27/24 23/26/23 
f 16/18/16 4/4/4 18/20/18 24/27/24 
f 18/20/18 17/19/17 25/28/25 26/29/26 
f 17/19/17 19/21/19 27/30/27 25/28/25 
f 19/23/19 20/22/20 28/31/28 27/32/27 
f 20/22/20 21/24/21 29/33/29 28/31/28 
f 21/24/21 22/25/22 30/34/30 29/33/29 
f 22/25/22 23/26/23 31/35/31 30/34/30 
f 23/26/23 24/27/24 32/36/32 31/35/31 
f 24/27/24 18/20/18 26/29/26 32/36/32 
f 26/29/26 25/28/25 33/37/33 34/38/34 
f 25/28/25 27/30/27 35/39/35 33/37/33 
f 27/32/27 28/31/28 36/40/36 35/41/35 
f 28/31/28 29/33/29 37/42/37 36/40/36 
f 29/33/29 30/34/30 38/43/38 37/42/37 
f 30/34/30 31/35/31 39/44/39 38/43/38 
f 31/35/31 32/36/32 40/45/40 39/44/39 
f 32/36/32 26/29/26 34/38/34 40/45/40 
s 1
f 33/46/41 35/47/42 36/48/43 40/49/44 
f 36/48/43 37/50/45 38/51/46 40/49/44 
f 38/51/46 39/52/47 40/49/44 
f 34/53/48 33/46/41 40/49/44 
# 34 polygons - 2 triangles

