# 3ds Max Wavefront OBJ Exporter v0.97b - (c)2007 guruware
# File Created: 17.09.2015 23:47:50

mtllib Cave Pillar 1.mtl

#
# object Cave_Pillar_1
#

v  -55.7911 -3.2117 -26.5340
v  -63.2061 12.5547 -23.4739
v  -62.6089 3.7722 -11.0833
v  -56.5355 -3.2117 -11.0833
v  -71.7162 -3.2117 -36.0831
v  -73.5930 14.4615 -31.1318
v  -94.2191 -3.2117 -40.9204
v  -92.3423 16.8184 -35.9691
v  -107.3622 -3.2117 -26.5340
v  -100.2057 18.7252 -23.4739
v  -112.3825 -3.2117 -11.0833
v  -104.0661 19.4535 -11.0833
v  -108.8430 -3.2117 4.3674
v  -101.6865 18.7252 1.3073
v  -94.2191 -3.2117 13.9165
v  -92.3423 16.8184 8.9652
v  -77.9732 -3.2117 13.9165
v  -79.8500 14.4615 8.9652
v  -67.2096 -3.2117 4.3674
v  -72.1230 12.5547 1.3073
v  -68.6639 31.2640 -20.9143
v  -69.5486 21.2203 -11.0833
v  -76.7741 36.4727 -26.9902
v  -92.1616 42.9109 -30.2731
v  -99.5484 48.1196 -20.9143
v  -102.3699 50.1091 -11.0833
v  -101.0292 48.1196 -1.2523
v  -92.1616 42.9109 4.8236
v  -83.0311 25.4565 4.8236
v  -78.0239 31.2640 -1.2523
v  -73.3399 80.7114 -17.7526
v  -75.0489 69.4261 -11.0833
v  -79.3319 78.6427 -21.8744
v  -92.0875 76.8404 -26.7117
v  -97.3450 79.6724 -17.7526
v  -99.3532 63.7941 -11.0833
v  -97.6039 77.9380 -4.6143
v  -92.0875 63.5005 -0.2922
v  -85.5889 62.3237 -0.2922
v  -82.7109 70.5079 -4.4141
v  -74.1481 107.6704 -16.8761
v  -76.8973 107.8052 -11.0833
v  -79.8794 124.3346 -20.4563
v  -91.4716 137.7442 -25.2936
v  -95.7878 140.9026 -16.8761
v  -97.4364 142.1091 -11.0833
v  -96.7584 122.2524 -5.0902
v  -91.4716 137.7442 -1.7104
v  -86.1365 133.8401 -1.7104
v  -84.1998 130.6817 -5.2905
v  -71.6981 135.8450 -18.3333
v  -74.1871 132.5924 -11.0833
v  -78.8536 151.4804 -22.8140
v  -91.9524 163.7221 -27.6513
v  -97.4875 167.3354 -18.3333
v  -99.6017 168.7155 -11.0833
v  -98.9683 167.3354 -3.8333
v  -91.9524 163.7221 0.6474
v  -85.1106 159.2558 0.6474
v  -81.9551 155.6425 -3.8333
v  -59.0349 191.7601 -23.1354
v  -61.8602 191.7601 -10.9991
v  -72.6252 191.7601 -30.6361
v  -92.7328 191.7601 -36.3158
v  -103.0566 191.7601 -23.1354
v  -107.0000 191.7601 -10.9991
v  -104.7953 191.7601 1.1373
v  -92.7328 191.7601 8.6380
v  -79.9719 191.7601 8.6380
v  -72.4420 191.7601 1.1373
# 70 vertices

vn 0.7235 0.6101 -0.3231
vn 0.8319 0.4486 -0.3266
vn 0.7668 0.6166 0.1781
vn 0.6916 0.7056 0.1540
vn 0.3634 0.3991 -0.8418
vn 0.4307 0.3224 -0.8429
vn -0.2743 0.3497 -0.8958
vn -0.2817 0.3180 -0.9053
vn -0.8082 0.3985 -0.4336
vn -0.8689 0.2566 -0.4232
vn -0.8976 0.4392 -0.0384
vn -0.9647 0.2572 -0.0573
vn -0.7537 0.4234 0.5027
vn -0.7979 0.2689 0.5395
vn -0.2820 0.3442 0.8955
vn -0.2498 0.3153 0.9155
vn 0.3399 0.3588 0.8694
vn 0.3750 0.4290 0.8218
vn 0.6976 0.4144 0.5845
vn 0.7397 0.4414 0.5080
vn 0.9166 0.2909 -0.2741
vn 0.8486 0.3393 0.4058
vn 0.4682 0.2402 -0.8504
vn -0.2922 0.2160 -0.9316
vn -0.8786 0.1400 -0.4565
vn -0.9832 0.1588 -0.0900
vn -0.8083 0.1725 0.5630
vn -0.1414 0.2155 0.9662
vn 0.3638 0.3687 0.8554
vn 0.7303 0.2599 0.6318
vn 0.9398 0.0861 -0.3306
vn 0.8119 0.1157 0.5723
vn 0.4562 0.1000 -0.8842
vn -0.3487 0.1024 -0.9316
vn -0.9256 0.0561 -0.3744
vn -0.9711 0.1837 -0.1524
vn -0.8317 0.0693 0.5509
vn -0.2064 0.1770 0.9623
vn 0.3951 0.1776 0.9013
vn 0.7156 0.0900 0.6927
vn 0.9692 0.0104 -0.2459
vn 0.7910 0.0012 0.6118
vn 0.3723 -0.0493 -0.9268
vn -0.3740 -0.0624 -0.9253
vn -0.9323 -0.0387 -0.3596
vn -0.9895 -0.0491 -0.1360
vn -0.8411 0.0138 0.5407
vn -0.2083 -0.0856 0.9743
vn 0.4796 -0.0640 0.8752
vn 0.7249 -0.0578 0.6865
vn 0.8655 -0.2367 -0.4414
vn 0.7773 -0.1561 0.6095
vn 0.2147 -0.2190 -0.9518
vn -0.4393 -0.2992 -0.8471
vn -0.9078 -0.2403 -0.3437
vn -0.9642 -0.2527 -0.0807
vn -0.8581 -0.2403 0.4538
vn -0.3428 -0.2133 0.9149
vn 0.3270 -0.2554 0.9098
vn 0.6477 -0.1927 0.7372
vn 0.8718 -0.3073 -0.3815
vn 0.8404 -0.2895 0.4581
vn 0.3505 -0.2677 -0.8975
vn -0.2861 -0.3423 -0.8950
vn -0.8451 -0.3244 -0.4249
vn -0.9233 -0.3809 -0.0497
vn -0.7600 -0.4013 0.5113
vn -0.2587 -0.3668 0.8936
vn 0.3550 -0.3741 0.8567
vn 0.6830 -0.3567 0.6374
# 70 vertex normals

vt 0.7490 0.0255 1.0000
vt 0.7213 0.1125 1.0000
vt 0.6505 0.0645 1.0000
vt 0.6665 0.0173 1.0000
vt 0.8404 0.0797 1.0000
vt 0.7903 0.1541 1.0000
vt 0.9579 0.1573 1.0000
vt 0.8879 0.2261 1.0000
vt 0.1314 0.0637 1.0000
vt 0.1711 0.1705 1.0000
vt 0.0806 0.1946 1.0000
vt 0.0239 0.1150 1.0000
vt 0.2213 0.0356 1.0000
vt 0.2529 0.1509 1.0000
vt 0.3069 0.0193 1.0000
vt 0.3334 0.1319 1.0000
vt 0.4020 0.0154 1.0000
vt 0.4105 0.1157 1.0000
vt 0.4888 0.0126 1.0000
vt 0.4874 0.1030 1.0000
vt 0.5636 0.0184 1.0000
vt 0.5530 0.1006 1.0000
vt 0.6869 0.2087 1.0000
vt 0.6253 0.1569 1.0000
vt 0.7407 0.2507 1.0000
vt 0.8150 0.3207 1.0000
vt 0.2291 0.2960 1.0000
vt 0.1503 0.2952 1.0000
vt 0.2935 0.2920 1.0000
vt 0.3520 0.2737 1.0000
vt 0.4167 0.2446 1.0000
vt 0.4805 0.1657 1.0000
vt 0.5325 0.1979 1.0000
vt 0.6158 0.4407 1.0000
vt 0.5730 0.3858 1.0000
vt 0.6643 0.4374 1.0000
vt 0.7485 0.4456 1.0000
vt 0.2781 0.4348 1.0000
vt 0.2118 0.4335 1.0000
vt 0.3096 0.3590 1.0000
vt 0.3670 0.4217 1.0000
vt 0.4133 0.3525 1.0000
vt 0.4636 0.3474 1.0000
vt 0.5016 0.3884 1.0000
vt 0.6062 0.5754 1.0000
vt 0.5652 0.5737 1.0000
vt 0.6548 0.6517 1.0000
vt 0.7402 0.7058 1.0000
vt 0.3203 0.7168 1.0000
vt 0.2680 0.6946 1.0000
vt 0.3556 0.7255 1.0000
vt 0.4040 0.6373 1.0000
vt 0.4352 0.7082 1.0000
vt 0.4698 0.6913 1.0000
vt 0.4977 0.6766 1.0000
vt 0.6142 0.7161 1.0000
vt 0.5646 0.6975 1.0000
vt 0.6871 0.7751 1.0000
vt 0.7882 0.7999 1.0000
vt 0.2543 0.8225 1.0000
vt 0.2032 0.7791 1.0000
vt 0.2939 0.8405 1.0000
vt 0.3420 0.8447 1.0000
vt 0.4028 0.8339 1.0000
vt 0.4524 0.8166 1.0000
vt 0.4885 0.7981 1.0000
vt 0.6795 0.9877 1.0000
vt 0.6104 0.9845 1.0000
vt 0.7601 0.9604 1.0000
vt 0.8734 0.9063 1.0000
vt 0.1843 0.9242 1.0000
vt 0.0965 0.8702 1.0000
vt 0.2540 0.9525 1.0000
vt 0.3207 0.9694 1.0000
vt 0.3982 0.9765 1.0000
vt 0.4656 0.9821 1.0000
vt 0.5203 0.9792 1.0000
# 77 texture coords

g Cave_Pillar_1
usemtl wire_086086086
s 8
f 1/1/1 2/2/2 3/3/3 4/4/4 
f 5/5/5 6/6/6 2/2/2 1/1/1 
f 7/7/7 8/8/8 6/6/6 5/5/5 
f 9/9/9 10/10/10 8/11/8 7/12/7 
f 11/13/11 12/14/12 10/10/10 9/9/9 
f 13/15/13 14/16/14 12/14/12 11/13/11 
f 15/17/15 16/18/16 14/16/14 13/15/13 
f 17/19/17 18/20/18 16/18/16 15/17/15 
f 19/21/19 20/22/20 18/20/18 17/19/17 
f 4/4/4 3/3/3 20/22/20 19/21/19 
f 21/23/21 22/24/22 3/3/3 2/2/2 
f 23/25/23 21/23/21 2/2/2 6/6/6 
f 24/26/24 23/25/23 6/6/6 8/8/8 
f 25/27/25 24/28/24 8/11/8 10/10/10 
f 26/29/26 25/27/25 10/10/10 12/14/12 
f 27/30/27 26/29/26 12/14/12 14/16/14 
f 28/31/28 27/30/27 14/16/14 16/18/16 
f 29/32/29 28/31/28 16/18/16 18/20/18 
f 30/33/30 29/32/29 18/20/18 20/22/20 
f 22/24/22 30/33/30 20/22/20 3/3/3 
f 31/34/31 32/35/32 22/24/22 21/23/21 
f 33/36/33 31/34/31 21/23/21 23/25/23 
f 34/37/34 33/36/33 23/25/23 24/26/24 
f 35/38/35 34/39/34 24/28/24 25/27/25 
f 36/40/36 35/38/35 25/27/25 26/29/26 
f 37/41/37 36/40/36 26/29/26 27/30/27 
f 38/42/38 37/41/37 27/30/27 28/31/28 
f 39/43/39 38/42/38 28/31/28 29/32/29 
f 40/44/40 39/43/39 29/32/29 30/33/30 
f 32/35/32 40/44/40 30/33/30 22/24/22 
f 41/45/41 42/46/42 32/35/32 31/34/31 
f 43/47/43 41/45/41 31/34/31 33/36/33 
f 44/48/44 43/47/43 33/36/33 34/37/34 
f 45/49/45 44/50/44 34/39/34 35/38/35 
f 46/51/46 45/49/45 35/38/35 36/40/36 
f 47/52/47 46/51/46 36/40/36 37/41/37 
f 48/53/48 47/52/47 37/41/37 38/42/38 
f 49/54/49 48/53/48 38/42/38 39/43/39 
f 50/55/50 49/54/49 39/43/39 40/44/40 
f 42/46/42 50/55/50 40/44/40 32/35/32 
f 51/56/51 52/57/52 42/46/42 41/45/41 
f 53/58/53 51/56/51 41/45/41 43/47/43 
f 54/59/54 53/58/53 43/47/43 44/48/44 
f 55/60/55 54/61/54 44/50/44 45/49/45 
f 56/62/56 55/60/55 45/49/45 46/51/46 
f 57/63/57 56/62/56 46/51/46 47/52/47 
f 58/64/58 57/63/57 47/52/47 48/53/48 
f 59/65/59 58/64/58 48/53/48 49/54/49 
f 60/66/60 59/65/59 49/54/49 50/55/50 
f 52/57/52 60/66/60 50/55/50 42/46/42 
f 61/67/61 62/68/62 52/57/52 51/56/51 
f 63/69/63 61/67/61 51/56/51 53/58/53 
f 64/70/64 63/69/63 53/58/53 54/59/54 
f 65/71/65 64/72/64 54/61/54 55/60/55 
f 66/73/66 65/71/65 55/60/55 56/62/56 
f 67/74/67 66/73/66 56/62/56 57/63/57 
f 68/75/68 67/74/67 57/63/57 58/64/58 
f 69/76/69 68/75/68 58/64/58 59/65/59 
f 70/77/70 69/76/69 59/65/59 60/66/60 
f 62/68/62 70/77/70 60/66/60 52/57/52 
# 60 polygons

